# xmcd
#
# Track frame offsets:
#	150
#	12922
#	31047
#	47373
#	61143
#
# Disc length: 1015 seconds
#
# Revision: 1
# Processed by: cddbd v1.5.2PL0 Copyright (c) Steve Scherf et al.
# Submitted via: audiograbber 1.83.01
#
DISCID=2c03f505
DTITLE=Fehler - Adharma
DYEAR=1900
DGENRE=sludge
TTITLE0=Season of the Witch
TTITLE1=Orchid
TTITLE2=In Her Eyes
TTITLE3=Variations on a Theme
TTITLE4=Blinded by Fear
EXTD=
EXTT0=
EXTT1=
EXTT2=
EXTT3=
EXTT4=
PLAYORDER=
